<svg xmlns="http://www.w3.org/2000/svg" width="111" height="80" viewBox="0 0 111 80"><g fill="none" fill-rule="evenodd"><rect width="85" height="29" x="13" y="24" fill="#FFF"></rect><path fill="#F15A2C" fill-rule="nonzero" d="M91.4465175,33.6237722 C91.0841025,32.975167 90.6933825,32.5132773 90.2815725,32.2593332 C89.867265,32.0007621 89.441025,31.8692991 89.029215,31.8692991 C88.617405,31.8692991 88.1958825,32.0007621 87.781575,32.2593332 C87.3628275,32.5132773 86.9743275,32.975167 86.609415,33.6237722 C86.24922,34.2770045 85.9481325,35.1542411 85.7150325,36.2601089 C85.4797125,37.3706039 85.3359675,38.762533 85.279635,40.4478724 L92.776575,40.4478724 C92.719965,38.762533 92.5787175,37.3706039 92.3411775,36.2601089 C92.1080775,35.1566907 91.8067125,34.2794541 91.4442975,33.6237722 L91.4465175,33.6237722 Z"></path><path fill="#F15A2C" fill-rule="nonzero" d="M83.02689,14.2159681 C77.726085,-2.51385567 71.168205,10.5959724 55.79304,0 C39.9045,11.0695658 33.59637,-2.97329573 28.0555275,14.2159681 C8.1393525,19.8691494 12.8568525,23.9809746 0,39.7690552 C12.1081575,54.5968842 8.8952625,61.0791262 28.0555275,65.5622051 C33.3396825,83.6796032 39.9045,67.9886909 55.79304,80 C71.674365,65.1721709 75.45003,85.5843197 83.02689,65.5622051 C101.167897,60.8415129 99.1438125,53.8995587 111,39.7690552 C98.143425,25.1584258 101.678775,20.3313113 83.02689,14.2159681 Z M83.8602225,27.8638963 L93.8924025,27.8638963 L93.8924025,28.9651371 L83.8602225,28.9651371 L83.8602225,27.8638963 Z M31.09665,48.7447393 C31.1130225,49.1394005 31.1341125,49.4856136 31.1624175,49.7880057 C31.1907225,50.1135331 31.2284625,50.3998666 31.2872925,50.6423791 L14.829045,50.6423791 L14.829045,50.2313871 L17.3384775,49.6266029 L17.3384775,26.7928675 L14.829045,26.1810066 L14.829045,25.7727364 L23.3713275,25.7727364 L23.3713275,26.1812788 L20.8738275,26.7931397 L20.8738275,49.8299214 L28.375485,49.8299214 C28.375485,48.6802326 28.610805,47.6206353 29.0839425,46.6396982 C29.5595775,45.6584888 30.1550925,44.8158191 30.875205,44.1070621 L31.29201,44.1070621 C31.2348689,44.4738398 31.1932084,44.8427773 31.167135,45.2129299 C31.1362822,45.5639963 31.1143529,45.9157622 31.1013675,46.2679001 C31.087215,46.6533072 31.0847175,47.0204782 31.0847175,47.3691409 C31.0847175,47.8930876 31.087215,48.3547051 31.1013675,48.7450114 L31.09665,48.7450114 L31.09665,48.7447393 Z M49.925025,32.2778415 L47.427525,32.8872528 L47.427525,49.6380345 L49.925025,50.2591495 L49.925025,50.6630648 L44.0850375,50.6630648 L44.0850375,48.2137158 C43.7836725,48.7839332 43.3929525,49.2986258 42.919815,49.762693 C42.5315925,50.1366684 42.041805,50.4945853 41.44407,50.8062316 C40.8460575,51.1200553 40.1328825,51.2749257 39.3020475,51.2749257 C38.4712125,51.2749257 37.69449,51.1200553 36.985755,50.8201128 C36.2880677,50.5338889 35.6576421,50.1103608 35.1334425,49.5757052 C34.603695,49.0471314 34.1966025,48.4053306 33.9046725,47.6595571 C33.6127425,46.9094287 33.4667775,46.0738357 33.4667775,45.1503285 L33.4667775,32.8872528 L30.969555,32.2778415 L30.969555,31.8671217 L39.0950325,31.8671217 L39.0950325,32.2778415 L36.79983,32.8872528 L36.79983,45.1503285 C36.79983,47.0847127 37.1175675,48.4491516 37.73667,49.2572545 C38.36049,50.0558309 39.0950325,50.4600184 39.92337,50.4600184 C40.594365,50.4600184 41.1851625,50.265954 41.6935425,49.8873514 C42.18974,49.5273963 42.6318706,49.1007967 43.00695,48.6200808 C43.425975,48.1004889 43.78839,47.4889002 44.087535,46.7776935 L44.087535,32.8872528 L41.79705,32.2778415 L41.79705,31.8671217 L49.925025,31.8671217 L49.925025,32.2778415 L49.925025,32.2778415 Z M81.58167,50.6630648 L73.46091,50.6630648 L73.46091,50.2591495 L75.753615,49.6380345 L75.753615,37.3820354 C75.753615,35.4520061 75.4380975,34.0807626 74.814555,33.2751095 C74.190735,32.4719059 73.46091,32.0794222 72.6253575,32.0794222 C71.926335,32.0794222 71.3377575,32.2664099 70.834095,32.6496395 C70.33737,33.0304195 69.9019725,33.448216 69.5417775,33.9147328 C69.1227525,34.4593652 68.7719925,35.0712261 68.46147,35.7522208 L68.46147,49.6380345 L70.754175,50.2591495 L70.754175,50.6630648 L62.84043,50.6630648 L62.84043,50.2591495 L65.1306375,49.6380345 L65.1306375,37.3820354 C65.1306375,35.4520061 64.8081825,34.0807626 64.1843625,33.2751095 C63.5583225,32.4719059 62.8429275,32.0794222 62.0048775,32.0794222 C61.3033575,32.0794222 60.71256,32.2664099 60.2088975,32.6496395 C59.7245353,33.0151685 59.2901897,33.4403642 58.91658,33.9147328 C58.5022725,34.4593652 58.1420775,35.0712261 57.8384925,35.7522208 L57.8384925,49.6380345 L60.1239825,50.2591495 L60.1239825,50.6630648 L52.00572,50.6630648 L52.00572,50.2591495 L54.50322,49.6380345 L54.50322,32.8872528 L52.00572,32.2778415 L52.00572,31.8671217 L57.84099,31.8671217 L57.84099,34.3186481 C58.1115525,33.7737435 58.4928375,33.272932 58.9612575,32.8042378 C59.356695,32.4210082 59.8512,32.0769725 60.46059,31.7446406 C61.0774725,31.4123087 61.797585,31.2528111 62.6309175,31.2528111 C63.6854175,31.2528111 64.5539925,31.4397989 65.2366425,31.8254781 C65.914575,32.2040807 66.4581975,32.6333087 66.8750025,33.0927488 C67.380885,33.6352038 67.769385,34.2516918 68.0493825,34.9280594 C68.3969934,34.2643228 68.8306186,33.6474415 69.33948,33.0927488 C69.7748775,32.6333087 70.3209975,32.2040807 70.9659075,31.8254781 C71.60388,31.4397989 72.3639525,31.2528111 73.256115,31.2528111 C74.094165,31.2528111 74.8592325,31.4076816 75.5651925,31.69837 C76.280865,32.0032117 76.8927525,32.4142037 77.4225,32.9520317 C77.9566875,33.4830551 78.368775,34.1202288 78.6559875,34.8728068 C78.9407025,35.6136811 79.08195,36.4585283 79.08195,37.3774084 L79.08195,49.6334074 L81.5863875,50.2545224 L81.5863875,50.6584378 L81.58167,50.6630648 L81.58167,50.6630648 Z M85.672575,45.6372587 C85.9386975,46.8079055 86.28474,47.7520983 86.7132,48.4790915 C87.14388,49.2017297 87.6264525,49.7096178 88.1747925,50.0098325 C88.6845169,50.3070403 89.2670653,50.4626575 89.86005,50.4600184 C90.5851575,50.4600184 91.253655,50.3214788 91.8938475,50.0512039 C92.53182,49.7790238 93.106245,49.4094031 93.60741,48.9524127 C94.1088525,48.4815411 94.5184425,47.9252049 94.83396,47.2717004 C95.1558878,46.6000236 95.373992,45.8850511 95.48109,45.1503285 L96.10713,45.1503285 C95.996685,46.0183109 95.763585,46.8239641 95.38452,47.5857963 C95.003235,48.3269428 94.5278775,48.970921 93.946515,49.5204526 C93.3589348,50.0641114 92.6764196,50.4996425 91.9315875,50.8062316 C91.1595825,51.1200553 90.3309675,51.2749257 89.436585,51.2749257 C88.384305,51.2749257 87.3816975,51.0509215 86.4448575,50.5961085 C85.4985825,50.1459226 84.66525,49.4948677 83.9168325,48.6315123 C83.189505,47.7774111 82.5987075,46.7338725 82.1702475,45.48511 C81.7440075,44.2477792 81.52284,42.8395192 81.52284,41.2674068 C81.52284,39.6952943 81.727635,38.1855112 82.1535975,36.9318495 C82.567905,35.67846 83.12124,34.6395485 83.7919575,33.8039555 C84.47211,32.9773444 85.2677025,32.3426203 86.1717975,31.9063156 C87.0708975,31.4653838 88.02189,31.2528111 89.0244975,31.2528111 C90.0273825,31.2528111 90.978375,31.4653838 91.879695,31.9063156 C92.78601,32.3426203 93.574665,32.9773444 94.25232,33.8039555 C94.93497,34.6395485 95.4835875,35.6806374 95.897895,36.9318495 C96.32136,38.1855112 96.523935,39.623711 96.523935,41.2674068 L85.279635,41.2674068 C85.279635,43.000922 85.4114475,44.4647067 85.6750725,45.6329039 L85.672575,45.6372587 L85.672575,45.6372587 Z"></path></g></svg>