<?xml version="1.0" encoding="utf-8"?>
<!-- Generator: Adobe Illustrator 27.8.1, SVG Export Plug-In . SVG Version: 6.00 Build 0)  -->
<svg version="1.1" id="Layer_1" xmlns="http://www.w3.org/2000/svg" xmlns:xlink="http://www.w3.org/1999/xlink" x="0px" y="0px"
	 viewBox="0 0 111 80" style="enable-background:new 0 0 111 80;" xml:space="preserve">
<style type="text/css">
	.st0{fill:#FFFFFF;}
	.st1{fill:#F15A2C;}
</style>
<g>
	<g>
		<path class="st0" d="M55.7,78.7c-5.9-4.2-10.5-4.8-13.9-4.8c-1,0-1.8,0-2.7,0.1c-0.7,0-1.4,0.1-2.1,0.1c-3.2,0-5.6-0.6-8-8.8
			l-0.2-0.6l-0.6-0.1c-12.9-3-15.3-6.9-19.6-14c-1.8-2.9-4-6.6-7.4-10.8c3.7-4.6,5.9-8.2,7.6-11.1c4.1-6.7,6-9.7,19.4-13.5l0.5-0.1
			l0.2-0.5c2.7-8.3,5.2-8.7,9.2-8.7c0.4,0,0.8,0,1.2,0c0.4,0,0.9,0,1.4,0c4.2,0,9-0.6,15-4.6c6.8,4.5,12,4.5,15.8,4.6
			c5,0.1,7.7,0.1,10.4,8.7l0.2,0.5l0.5,0.2c12.4,4.1,14.6,7.3,18.9,13.9c1.9,2.9,4.2,6.4,8,10.7c-3.3,4-5.5,7.4-7.4,10.4
			c-4.5,7-7.2,11.2-19.5,14.4l-0.5,0.1l-0.2,0.5C79,73.3,76.8,74,75,74l0,0c-0.8,0-1.7-0.2-2.8-0.4c-1.3-0.2-2.7-0.5-4.3-0.5
			C63.9,73.1,60,74.9,55.7,78.7z"/>
		<path class="st1" d="M55.8,2.4c6.7,4.3,12,4.3,15.8,4.4c4.8,0.1,7,0.1,9.5,8l0.3,1l1,0.3c12.1,4,14.2,7.1,18.4,13.5
			c1.8,2.7,4.1,6.1,7.6,10.2c-3,3.8-5.1,7-6.9,9.8c-4.5,7-7,10.9-18.9,14l-1,0.3l-0.4,1C78.1,73,76,73,75,73c-0.7,0-1.6-0.2-2.6-0.4
			c-1.3-0.3-2.8-0.6-4.5-0.6c-4.1,0-8,1.7-12.2,5.3c-5.8-4-10.4-4.5-13.9-4.5c-1,0-1.9,0-2.7,0.1c-0.7,0-1.4,0.1-2,0.1
			c-2.4,0-4.7,0-7-8.1l-0.3-1.1l-1.1-0.3c-12.5-2.9-14.7-6.5-19-13.5c-1.7-2.8-3.8-6.3-7-10.3C6,35.4,8.1,32,9.8,29.2
			c4.1-6.6,5.7-9.4,18.8-13.1l1-0.3l0.3-1c2.6-8,5-8,8.3-8c0,0,0,0,0,0c0.4,0,0.8,0,1.2,0c0.4,0,0.9,0,1.4,0
			C45,6.8,49.8,6.3,55.8,2.4 M55.8,0c-6.3,4.4-11.2,4.8-15,4.8c-0.9,0-1.7,0-2.6,0c-4.4,0-7.4,0.7-10.2,9.4C8.1,19.9,12.9,24,0,39.8
			c12.1,14.8,8.9,21.3,28.1,25.8c2.4,8.4,5.2,9.5,9,9.5c1.4,0,3-0.2,4.8-0.2c3.7,0,8.2,0.7,14,5.1c5.1-4.8,8.9-5.9,12.1-5.9
			c2.8,0,5.1,0.9,7.1,0.9c2.7,0,5.1-1.7,8.1-9.5c18.1-4.7,16.1-11.7,28-25.8c-12.9-14.6-9.3-19.4-28-25.6C77.7-2.5,71.2,10.6,55.8,0
			L55.8,0z"/>
	</g>
	<rect x="83.9" y="27.9" class="st1" width="10" height="1.1"/>
	<path class="st1" d="M31.1,48.7c0,0.4,0,0.7,0.1,1c0,0.3,0.1,0.6,0.1,0.9H14.8v-0.4l2.5-0.6V26.8l-2.5-0.6v-0.4h8.5v0.4l-2.5,0.6
		v23h7.5c0-1.1,0.2-2.2,0.7-3.2c0.5-1,1.1-1.8,1.8-2.5h0.4c-0.1,0.4-0.1,0.7-0.1,1.1c0,0.4-0.1,0.7-0.1,1.1c0,0.4,0,0.8,0,1.1
		C31.1,47.9,31.1,48.4,31.1,48.7L31.1,48.7L31.1,48.7z"/>
	<path class="st1" d="M49.9,32.3l-2.5,0.6v16.8l2.5,0.6v0.4h-5.8v-2.4c-0.3,0.6-0.7,1.1-1.2,1.5c-0.4,0.4-0.9,0.7-1.5,1
		c-0.6,0.3-1.3,0.5-2.1,0.5s-1.6-0.2-2.3-0.5c-0.7-0.3-1.3-0.7-1.9-1.2c-0.5-0.5-0.9-1.2-1.2-1.9c-0.3-0.8-0.4-1.6-0.4-2.5V32.9
		L31,32.3v-0.4h8.1v0.4l-2.3,0.6v12.3c0,1.9,0.3,3.3,0.9,4.1c0.6,0.8,1.4,1.2,2.2,1.2c0.7,0,1.3-0.2,1.8-0.6
		c0.5-0.4,0.9-0.8,1.3-1.3c0.4-0.5,0.8-1.1,1.1-1.8V32.9l-2.3-0.6v-0.4h8.1V32.3L49.9,32.3z"/>
	<path class="st1" d="M81.6,50.7h-8.1v-0.4l2.3-0.6V37.4c0-1.9-0.3-3.3-0.9-4.1c-0.6-0.8-1.4-1.2-2.2-1.2c-0.7,0-1.3,0.2-1.8,0.6
		c-0.5,0.4-0.9,0.8-1.3,1.3c-0.4,0.5-0.8,1.2-1.1,1.8v13.9l2.3,0.6v0.4h-7.9v-0.4l2.3-0.6V37.4c0-1.9-0.3-3.3-0.9-4.1
		c-0.6-0.8-1.3-1.2-2.2-1.2c-0.7,0-1.3,0.2-1.8,0.6c-0.5,0.4-0.9,0.8-1.3,1.3c-0.4,0.5-0.8,1.2-1.1,1.8v13.9l2.3,0.6v0.4H52v-0.4
		l2.5-0.6V32.9L52,32.3v-0.4h5.8v2.5c0.3-0.5,0.7-1,1.1-1.5c0.4-0.4,0.9-0.7,1.5-1.1c0.6-0.3,1.3-0.5,2.2-0.5c1.1,0,1.9,0.2,2.6,0.6
		c0.7,0.4,1.2,0.8,1.6,1.3c0.5,0.5,0.9,1.2,1.2,1.8c0.3-0.7,0.8-1.3,1.3-1.8c0.4-0.5,1-0.9,1.6-1.3c0.6-0.4,1.4-0.6,2.3-0.6
		c0.8,0,1.6,0.2,2.3,0.4c0.7,0.3,1.3,0.7,1.9,1.3c0.5,0.5,0.9,1.2,1.2,1.9c0.3,0.7,0.4,1.6,0.4,2.5v12.3l2.5,0.6L81.6,50.7
		L81.6,50.7L81.6,50.7z"/>
	<path class="st1" d="M94.8,47.3c-0.3,0.7-0.7,1.2-1.2,1.7c-0.5,0.5-1.1,0.8-1.7,1.1c-0.6,0.3-1.3,0.4-2,0.4c-0.6,0-1.2-0.2-1.7-0.5
		c-0.5-0.3-1-0.8-1.5-1.5c-0.4-0.7-0.8-1.7-1-2.8l0,0c-0.3-1.2-0.4-2.6-0.4-4.4h11.2c0-1.6-0.2-3.1-0.6-4.3c-0.4-1.3-1-2.3-1.6-3.1
		c-0.7-0.8-1.5-1.5-2.4-1.9C91,31.5,90,31.3,89,31.3c-1,0-2,0.2-2.9,0.7c-0.9,0.4-1.7,1.1-2.4,1.9c-0.7,0.8-1.2,1.9-1.6,3.1
		c-0.4,1.3-0.6,2.8-0.6,4.3c0,1.6,0.2,3,0.6,4.2c0.4,1.2,1,2.3,1.7,3.1c0.7,0.9,1.6,1.5,2.5,2c0.9,0.5,1.9,0.7,3,0.7
		c0.9,0,1.7-0.2,2.5-0.5c0.7-0.3,1.4-0.7,2-1.3c0.6-0.5,1.1-1.2,1.4-1.9c0.4-0.8,0.6-1.6,0.7-2.4h-0.6
		C95.4,45.9,95.2,46.6,94.8,47.3z M85.7,36.3c0.2-1.1,0.5-2,0.9-2.6c0.4-0.6,0.8-1.1,1.2-1.4c0.4-0.3,0.8-0.4,1.2-0.4
		s0.8,0.1,1.3,0.4c0.4,0.3,0.8,0.7,1.2,1.4h0c0.4,0.7,0.7,1.5,0.9,2.6c0.2,1.1,0.4,2.5,0.4,4.2h-7.5C85.3,38.8,85.5,37.4,85.7,36.3z
		"/>
</g>
</svg>
